<?xml version="1.0" standalone="no"?>
<!DOCTYPE svg PUBLIC "-//W3C//DTD SVG 20010904//EN"
 "http://www.w3.org/TR/2001/REC-SVG-20010904/DTD/svg10.dtd">
<svg version="1.0" xmlns="http://www.w3.org/2000/svg"
 width="512.000000pt" height="512.000000pt" viewBox="0 0 512.000000 512.000000"
 preserveAspectRatio="xMidYMid meet">
<metadata>
Created by potrace 1.11, written by Peter Selinger 2001-2013
</metadata>
<g transform="translate(0.000000,512.000000) scale(0.100000,-0.100000)"
fill="#000000" stroke="none">
<path d="M78 5099 c-23 -12 -46 -35 -58 -59 -20 -39 -20 -54 -20 -2474 0
-2691 -5 -2486 63 -2537 l32 -24 1770 0 c1754 0 1770 0 1797 20 38 29 50 53
106 220 28 83 99 285 157 450 58 165 108 307 110 315 2 8 28 85 58 170 31 85
92 261 137 390 174 498 211 605 217 620 3 8 7 20 9 25 1 6 30 89 64 185 34 96
66 186 70 200 5 14 36 104 70 200 34 96 91 261 126 365 36 105 69 199 74 210
23 53 60 162 60 176 0 9 3 19 8 23 4 4 7 11 8 14 0 4 4 14 7 22 7 17 137 389
141 405 2 6 8 23 15 39 45 111 6 202 -101 238 -18 6 -116 41 -218 78 -102 38
-291 106 -420 153 -129 47 -311 113 -405 147 -93 34 -182 67 -198 72 l-27 10
0 119 c0 157 -23 211 -99 237 -25 9 -472 12 -1775 12 -1714 -1 -1742 -1 -1778
-21z"/>
</g>
</svg>
