<svg width="18" height="24" viewBox="0 0 18 24" fill="none" xmlns="http://www.w3.org/2000/svg">
<path d="M0 18V4C0 3.44772 0.447715 3 1 3H4C4.55228 3 5 3.44772 5 4V18C5 18.5523 4.55228 19 4 19H1C0.447715 19 0 18.5523 0 18Z" fill="#3BDB95"/>
<path d="M10 7V1C10 0.447715 10.4477 0 11 0H17C17.5523 0 18 0.447715 18 1V7C18 7.55228 17.5523 8 17 8H11C10.4477 8 10 7.55228 10 7Z" fill="#3BDB95"/>
<path d="M10 23V17C10 16.4477 10.4477 16 11 16H17C17.5523 16 18 16.4477 18 17V23C18 23.5523 17.5523 24 17 24H11C10.4477 24 10 23.5523 10 23Z" fill="#3BDB95"/>
</svg>
